<svg xmlns="http://www.w3.org/2000/svg" version="1.1" xmlns:xlink="http://www.w3.org/1999/xlink" viewBox="0 0 9.803455577864405 3.3111112858566227"><g transform="matrix(0.7518431897114325,0,0,0.7518431897114325,3.3391883162714437,1.2580185563683914)"><g transform="matrix(1,0,0,1,0,0)" clip-path="url(#SvgjsClipPath7119)"><g clip-path="url(#SvgjsClipPath7117efd3767d-eed6-4e15-84c3-3c63bec85f05)"><path d=" M -1.9922836464584497 1.637865356939935 C -2.149459900023516 1.6376783176847334 -2.276828092625828 1.5103052272476751 -2.2770090879189024 1.3531289666065183 C -2.2768039423211284 1.1959733656753846 -2.1494392839314336 1.068633195779905 -1.992283646458447 1.0684582695108928 C -1.8351468906227981 1.068657333568988 -1.7078120134209187 1.1959922107708674 -1.7076129493628234 1.3531289666065183 C -1.7077878629026988 1.5102863829872324 -1.8351262746213872 1.6376541804932656 -1.9922836464584244 1.637865356939935 Z M -1.9922836464584497 1.1607901152265625 C -2.0984654893175065 1.1609047460140651 -2.1845176767007497 1.2469471374854901 -2.1846443955843355 1.3531289666065183 C -2.1845297647672877 1.459322903248097 -2.098477569363582 1.5453848945645463 -1.992283646458459 1.5455116134783347 C -1.8860939994784427 1.545378862712698 -1.8000484650395423 1.4593186347057592 -1.7999338462055283 1.3531289666065178 C -1.800060553305448 1.246951406512443 -1.8861060793237758 1.1609107783496349 -1.9922836464584324 1.1607901152265625 Z" fill="#1192dc" transform="matrix(1,0,0,1,0,0)" fill-rule="nonzero"></path></g><g clip-path="url(#SvgjsClipPath7117efd3767d-eed6-4e15-84c3-3c63bec85f05)"><path d=" M -0.8606628811385133 1.0479729281929733 C -1.0806585856286048 1.0479729281929733 -1.3126214082696788 0.8743785473294675 -1.447642909676727 0.6751638037273563 C -1.4545174911118783 0.665025936643764 -1.4570819408760003 0.6525718399577555 -1.4547718094510649 0.6405427289468514 C -1.4524616780261308 0.6285136179359475 -1.4454663111458261 0.6178954368738677 -1.4353254275908582 0.6110253058971188 C -1.4251879520566226 0.6041523523633142 -1.4127346245600885 0.6015899324713488 -1.4007071826105155 0.6039021912446493 C -1.3886797406609412 0.6062144500179497 -1.3780642681888933 0.6132118142098341 -1.3711978786335866 0.6233537368559522 C -1.2358588599105482 0.8230283331226033 -0.9820092402120051 1.0032796287489596 -0.7782288165833988 0.9442104591016175 C -0.6069555967885181 0.8945244735854655 -0.5066091760623117 0.6729959268802429 -0.4956822008430253 0.32043126852731063 C -0.49486639946382116 0.29494657376140576 -0.47357381787013075 0.2749324287437348 -0.44808745006322903 0.2756941735914368 C -0.4225980545308867 0.27648615990203396 -0.40257512504104875 0.29778840018669384 -0.4033613040003201 0.3232779754982671 C -0.4190838855783712 0.8306487487063939 -0.6018972174785884 0.9892322247345876 -0.7524989651151399 1.0329072789928353 C -0.7876595742482888 1.0430197002850075 -0.8240771559372289 1.0480921359975275 -0.860662881138512 1.0479729281929728 Z" fill="#1192dc" transform="matrix(1,0,0,1,0,0)" fill-rule="nonzero"></path></g><g clip-path="url(#SvgjsClipPath7117efd3767d-eed6-4e15-84c3-3c63bec85f05)"><path d=" M -1.029385013532497 1.6356317868550305 C -1.1144468075992628 1.6356317868550305 -1.2095377693021667 1.602533343881182 -1.30639149955247 1.5365335376468576 C -1.4714676572490377 1.4240995611670506 -1.5472667047872304 1.1987717555428983 -1.6082190805845902 1.0177211921900802 L -1.6172081052890324 0.9910497376468136 C -1.6475583811486132 0.9013675191887264 -1.7499522411193156 0.7485650480861666 -1.8556745584714462 0.7068607909616577 C -1.8896540863618447 0.6914667995786029 -1.9288686863435145 0.692798784236249 -1.9617253420125316 0.7104629701672126 C -2.082381922089215 0.7752802981212944 -2.089367303041022 0.9906227316011701 -2.0351813307361684 1.1041844419963942 C -2.0242004930195616 1.1272049904411814 -2.03396024697617 1.1547685748198928 -2.0569805368099137 1.1657499546798058 C -2.080005387145693 1.176703207613771 -2.107551237947486 1.16694483400588 -2.118546049493326 1.143939799733095 C -2.1888706605489103 0.9965570207483171 -2.179750249368885 0.7227366567612213 -2.0054332428896773 0.6291018951626909 C -1.9486243568891681 0.5986559367487404 -1.8810641891667506 0.5956512935437251 -1.821776847771138 0.6209340359306396 C -1.6825838257643413 0.6758426338511992 -1.5652228564501858 0.8565866287609917 -1.5297156614239906 0.9614439851488691 L -1.5206828412276865 0.9882687239136491 C -1.4641647589812392 1.156224435200068 -1.393829199052689 1.3652493689790135 -1.2544062507136233 1.460165148714474 C -1.199727579125333 1.4973913167962096 -1.0120748453744892 1.609376389484443 -0.8926445390699089 1.486880398749602 C -0.7905791452881625 1.3822091732021335 -0.785816385548294 1.2796948756288127 -0.8127177664238294 1.127133279731488 C -0.8171516952440376 1.102017824298494 -0.8003875928125139 1.078062804245027 -0.7752726208827887 1.0736261375504754 C -0.7632094555114322 1.071478749334775 -0.7507876247811034 1.074220246782482 -0.7407488671893614 1.0812455283383975 C -0.7307101095976181 1.0882708098943126 -0.7238797851614407 1.0990022755465563 -0.7217654787017793 1.1110712830915155 C -0.6911086343991739 1.2851036188736296 -0.6978640890187118 1.4194462901568343 -0.8265133463600034 1.5513583116417609 C -0.8795227266067329 1.6063699320390952 -0.9529999154855586 1.6368925680583262 -1.0293850135324956 1.6356317868550305 Z" fill="#1192dc" transform="matrix(1,0,0,1,0,0)" fill-rule="nonzero"></path></g><g clip-path="url(#SvgjsClipPath7117efd3767d-eed6-4e15-84c3-3c63bec85f05)"><path d=" M -1.496551525212349 0.5936932399931808 C -1.5104319399469035 0.5937140630475154 -1.5235830837176447 0.5874803404650532 -1.5323543398086064 0.5767224868970958 C -1.7394303741997434 0.3230261514200672 -1.831926453009891 0.057745908345839814 -1.7797441244576688 -0.13293966321636874 C -1.7477405687803418 -0.249961217468601 -1.6627554168243326 -0.33680767782869697 -1.5339966707533867 -0.3841068090384319 C -1.522506368968684 -0.38833985063178666 -1.5098049547780743 -0.3878339259670811 -1.4986877443953162 -0.38270037850551875 C -1.487570534012558 -0.37756683104395705 -1.4789486080599528 -0.36822636665102854 -1.474719472519705 -0.3567346266253907 C -1.4659175350298277 -0.33280739638771595 -1.4781697850332862 -0.3062739237802258 -1.5020916549327468 -0.29745742839170947 C -1.603062161417972 -0.26036264678555654 -1.6664889825054696 -0.19682633696840618 -1.6906093496478416 -0.10861126748765815 C -1.7342625061601582 0.050913811615544535 -1.6461788231549939 0.2911101867264606 -1.460759659489053 0.5182664541358047 C -1.4530135190255216 0.5277546113925914 -1.4493538912185842 0.5399313495720585 -1.4505858846554538 0.5521178179850895 C -1.451817878092322 0.5643042863981199 -1.4578405697932522 0.5755021885700514 -1.4673289832681853 0.5832480151843641 C -1.475565242368551 0.5900106782142097 -1.4858946267837045 0.5937027848953854 -1.4965515252123502 0.5936932399931808 Z" fill="#1192dc" transform="matrix(1,0,0,1,0,0)" fill-rule="nonzero"></path></g><g clip-path="url(#SvgjsClipPath7117efd3767d-eed6-4e15-84c3-3c63bec85f05)"><path d=" M -0.44732102895566395 0.22770526338489283 C -0.4598145920002126 0.22891247949670956 -0.4721009316575018 0.2238873665768789 -0.48016764785131283 0.21427099625657253 C -0.5009705064852239 0.18927471927698392 -0.4921238171293294 0.14820549678445727 -0.4929778292206157 0.11850120442982537 C -0.49436651870825044 0.06440787390684943 -0.4991202177730356 0.010453389521532519 -0.5072113640753972 -0.04304941617194813 C -0.5211164327412214 -0.13341046475387253 -0.5452367998835921 -0.224056184032899 -0.5886490811906753 -0.30499025299177823 C -0.6122498133075178 -0.3510189937605804 -0.6444247074646663 -0.39211649370097124 -0.683444423323518 -0.42607383911410623 C -0.7488639392906875 -0.4807087152105364 -0.8278272111158276 -0.49889479320576063 -0.9181335153329315 -0.48020506705413646 C -0.9431067413961041 -0.47505015614010127 -0.96753614715097 -0.49109634624182297 -0.9727245959375004 -0.5160626260152199 C -0.9778853921516502 -0.5410405757066975 -0.9618304923565033 -0.565475780339972 -0.9368560881034531 -0.5706537066197888 C -0.8192323458381312 -0.5949711534755342 -0.7111231741795856 -0.5695588193232662 -0.6242438672005941 -0.49696779156388216 C -0.5594593858654078 -0.4428584613697829 -0.5136602502519081 -0.3688659778708505 -0.4809669155777727 -0.29181875881462305 C -0.443903875458862 -0.20121706093926972 -0.41990843594574656 -0.10580671064906633 -0.4097007014471781 -0.008450977601858645 C -0.4033069711509616 0.046654721636584795 -0.4000644787596215 0.10208050476793662 -0.3999890511270314 0.15755583429675235 C -0.3999233578892418 0.18001197274841085 -0.40143430235844035 0.20695714911580831 -0.4221824166275263 0.21953740415284162 C -0.42979715033377475 0.22421180763449877 -0.4384130260061767 0.22701121671621038 -0.44732102895566395 0.22770526338489283 Z" fill="#1192dc" transform="matrix(1,0,0,1,0,0)" fill-rule="nonzero"></path></g><g clip-path="url(#SvgjsClipPath7117efd3767d-eed6-4e15-84c3-3c63bec85f05)"><path d=" M -1.1465160565143808 -0.4557452848498426 C -1.1658318530321454 -0.4557535503606378 -1.1831040934939518 -0.46777642722317936 -1.1898188490918138 -0.48588753212308283 C -1.1940783944692157 -0.49737046479629077 -1.1935999046629304 -0.5100754755014417 -1.1884887216020883 -0.5212054924519289 C -1.1833775385412464 -0.5323355094024167 -1.1740526958128472 -0.5409780528708252 -1.1625671042813879 -0.5452304235945563 L -1.0756768484294306 -0.5774529567311872 C -1.0641942175387793 -0.5817234592938728 -1.0514847644297738 -0.5812530222126114 -1.0403492655017965 -0.5761453154929724 C -1.0292137665738192 -0.5710376087733335 -1.0205661399632706 -0.5617118346294893 -1.0163120592120274 -0.5502231096666951 C -1.0120521466398675 -0.538738662740379 -1.0125303432670996 -0.5260321330236063 -1.0176413933296917 -0.5149003522323998 C -1.0227524433922839 -0.5037685714411941 -1.0320774198585363 -0.4951239555815181 -1.043563804022452 -0.4908692693222558 L -1.1304650087473738 -0.45864673618562485 C -1.1356003996018549 -0.4567333328672971 -1.1410357900099959 -0.4557508100445432 -1.1465160565143808 -0.4557452848498426 Z" fill="#1192dc" transform="matrix(1,0,0,1,0,0)" fill-rule="nonzero"></path></g><g clip-path="url(#SvgjsClipPath7117efd3767d-eed6-4e15-84c3-3c63bec85f05)"><path d=" M -1.103541730125908 -0.3554317107425302 C -1.1228539476069463 -0.3554302115390712 -1.1401278269032913 -0.3674454939522817 -1.1468445227033381 -0.3855520602698408 C -1.1511053600765473 -0.39703662109508364 -1.1506289949767108 -0.4097434831813881 -1.1455202407596585 -0.42087678919619764 C -1.140411486542609 -0.4320100952110078 -1.131088907740567 -0.4406576840234114 -1.1196037267658796 -0.44491684948724397 L -1.032691573167992 -0.47717222924277164 C -1.0212120359908772 -0.4814459625404246 -1.008504027758196 -0.4809782369199238 -0.9973697189149329 -0.47587218789126645 C -0.9862354100716724 -0.4707661388626091 -0.9775892423221251 -0.4614411174822219 -0.9733377328235533 -0.449953331051244 C -0.9644631470725078 -0.4260379433218261 -0.9766536443241836 -0.3994560910516838 -1.0005675798880462 -0.3905775929608757 L -1.0874797334859336 -0.3583331620783131 C -1.0926178858159603 -0.3564159766291619 -1.0980575522730187 -0.3554333511273759 -1.103541730125908 -0.3554317107425302 Z" fill="#1192dc" transform="matrix(1,0,0,1,0,0)" fill-rule="nonzero"></path></g><g clip-path="url(#SvgjsClipPath7117efd3767d-eed6-4e15-84c3-3c63bec85f05)"><path d=" M -1.1228445931635824 -0.3516324518235997 C -1.1416398848175924 -0.3516324626477664 -1.15856209926 -0.36301783588479153 -1.165643737584614 -0.38042798772211883 L -1.202672825952976 -0.47135837769824074 C -1.2072982083303356 -0.48270628869153465 -1.207224960953464 -0.49542706714540635 -1.2024692050461097 -0.5067209607077771 C -1.197713449138754 -0.5180148542701478 -1.1886649566890068 -0.5269562386169688 -1.1773152361655352 -0.5315771790069308 C -1.165967038038917 -0.5362140709982313 -1.1532402527256156 -0.536145282748322 -1.1419428409523584 -0.5313859912794785 C -1.1306454291791 -0.5266266998106349 -1.1217058344957607 -0.5175680330692329 -1.1170964348568444 -0.5062086403465249 L -1.080078295361448 -0.415256352624472 C -1.0754498846913583 -0.40390871360029484 -1.075521630170515 -0.3911867228882433 -1.0802777320636334 -0.3798920076843826 C -1.0850338339567491 -0.3685972924805212 -1.0940842430743283 -0.35965613540239416 -1.1054358851488904 -0.35503755131578185 C -1.1109632828651022 -0.35278505827274675 -1.1168758549899909 -0.3516285740395143 -1.1228445931635824 -0.35163245182360037 Z" fill="#1192dc" transform="matrix(1,0,0,1,0,0)" fill-rule="nonzero"></path></g><g clip-path="url(#SvgjsClipPath7117efd3767d-eed6-4e15-84c3-3c63bec85f05)"><path d=" M -1.2464683178138416 -0.3662491972321644 L -1.2799718690874027 -0.46185475596443415 C -1.2873830853552417 -0.48292966506400514 -1.3088341316425012 -0.49566189898934504 -1.3308841283756598 -0.4920736453484311 C -1.3403199673061978 -0.49468388481194414 -1.3503444845986008 -0.494196475280499 -1.3594825845608034 -0.4906831384818481 L -1.4486940014813863 -0.45627083075217356 C -1.4601217541258737 -0.45186437629883647 -1.4693304559956344 -0.4430979107826841 -1.4742935446555947 -0.43190067352047234 C -1.4792566333155546 -0.4207034362582611 -1.4795673903842408 -0.4079930256505627 -1.4751574274383166 -0.3965666264728491 C -1.4682828376582413 -0.3787530481172532 -1.451156734736272 -0.3670049592226094 -1.4320626634472238 -0.367004669466765 C -1.4263778372738503 -0.36701447842439 -1.420743535622459 -0.36807230185696327 -1.4154422742860244 -0.3701250982618517 L -1.354008148078195 -0.39382940823154566 L -1.3473621821883088 -0.3748769091287563 L -1.4134386305333893 -0.3493769839927671 C -1.4248663831778767 -0.3449705295394301 -1.4340750850476374 -0.33620406402327774 -1.439038173707599 -0.3250068267610659 C -1.4440012623675575 -0.31380958949885474 -1.4443120194362438 -0.30109917889115634 -1.4399020564903195 -0.28967277971344274 C -1.4330274667102443 -0.27185920135784614 -1.4159013637882762 -0.26011111246320295 -1.3968072924992265 -0.2601108227073586 C -1.3911225890930967 -0.26011109911272356 -1.3854872125133832 -0.2611654119906148 -1.3801869033380274 -0.26322030262948015 L -1.2909864352904092 -0.2976435592321205 C -1.2854427573835654 -0.29978999834064074 -1.2803702252171858 -0.3029956601642615 -1.2760521725658536 -0.30708148772813676 C -1.2756251665202103 -0.30720192533075485 -1.2752091093475317 -0.30725666969558063 -1.2747821033018885 -0.30739900504412837 C -1.2507224534390058 -0.31584259953152716 -1.2380509240916606 -0.34218036837993204 -1.2464683178138416 -0.36624919723216376 Z" fill="#1192dc" transform="matrix(1,0,0,1,0,0)" fill-rule="nonzero"></path></g><g clip-path="url(#SvgjsClipPath7117efd3767d-eed6-4e15-84c3-3c63bec85f05)"><path d=" M -1.8976853840389811 1.403767504070644 C -1.9009920253560622 1.4037604442892055 -1.9042768751200543 1.403232060131443 -1.9074189321050592 1.402201815236618 C -1.9152783873707122 1.3996256506882938 -1.9217918076556384 1.3940315462273114 -1.925525122231849 1.3866511652664175 C -1.9292584368080612 1.3792707843055236 -1.929905549047018 1.3707092485625245 -1.927323983155818 1.3628515657996307 C -1.9220970330813998 1.344209821433728 -1.9264207668357716 1.3241894997369443 -1.9388750441341271 1.3093663213645486 C -1.9702107185605748 1.2786328349511864 -1.997123048309075 1.2924941081251502 -2.0059587887920047 1.2970816858975756 C -2.013308567532386 1.3008795137246532 -2.0218669297459386 1.3015986959761463 -2.029747443292062 1.2990807106731626 C -2.0376279568381856 1.2965627253701792 -2.0441836844987153 1.2910142821894124 -2.04796961435954 1.2836583676422206 C -2.0558690458768907 1.2683566279821012 -2.049869221037695 1.2495483535474632 -2.0345681938501183 1.2416475420746855 C -1.9863931528031626 1.2168045493166093 -1.935557535625665 1.2252242326268608 -1.8951999898758762 1.2648263061420484 C -1.8659884759916756 1.2964047238899927 -1.8556600670927732 1.3410792570587513 -1.868046784922139 1.3822748664399245 C -1.872249793182812 1.3950867589726115 -1.8842017020468114 1.4037537693531181 -1.8976853840389785 1.4037675040706437 Z" fill="#1192dc" transform="matrix(1,0,0,1,0,0)" fill-rule="nonzero"></path></g><g clip-path="url(#SvgjsClipPath7117efd3767d-eed6-4e15-84c3-3c63bec85f05)"><path d=" M -1.9702654629254002 1.4714862833605071 C -1.9864326008597022 1.4698506548363977 -1.9993995198048333 1.4573987981768926 -2.0016887283355693 1.441311189468371 C -2.0032544171695954 1.4184170960981035 -1.9756851550431807 1.4185922780655469 -1.9611778983642683 1.411519306130017 C -1.9502947186368438 1.4061872049959567 -1.9452144415809824 1.4014134963831224 -1.9327108286547066 1.4075886607355046 C -1.9235044858210202 1.4119948705623622 -1.9164183117648008 1.4198683972914936 -1.913002857317318 1.4294864066659367 C -1.9046379183718931 1.4575483680757864 -1.9488056719135756 1.4707089133799762 -1.9690610868992247 1.471442487868646 C -1.96946984482326 1.47147168486322 -1.969871303498653 1.4714862833605071 -1.9702654629254002 1.4714862833605071 Z" fill="#1192dc" transform="matrix(1,0,0,1,0,0)" fill-rule="nonzero"></path></g></g><g><path d=" M 1.0635000000000001 1.0574999999999999 L 0.7695 1.0574999999999999 L 0.378 0.4664999999999999 L 0.378 1.0574999999999999 L 0.084 1.0574999999999999 L 0.084 -2.220446049250313e-16 L 0.378 -2.220446049250313e-16 L 0.7695 0.5984999999999998 L 0.7695 -2.220446049250313e-16 L 1.0635000000000001 -2.220446049250313e-16 L 1.0635000000000001 1.0574999999999999 M 1.3957719726562499 1.0154999999999998 Q 1.2960219726562499 0.9629999999999999 1.23902197265625 0.8654999999999999 Q 1.18202197265625 0.7679999999999999 1.18202197265625 0.6359999999999999 Q 1.18202197265625 0.5054999999999998 1.23977197265625 0.4079999999999999 Q 1.29752197265625 0.3104999999999999 1.39727197265625 0.2579999999999999 Q 1.49702197265625 0.2054999999999999 1.62302197265625 0.2054999999999999 Q 1.74902197265625 0.2054999999999999 1.84877197265625 0.2579999999999999 Q 1.94852197265625 0.3104999999999999 2.00627197265625 0.4079999999999999 Q 2.06402197265625 0.5054999999999998 2.06402197265625 0.6359999999999999 Q 2.06402197265625 0.7665 2.00627197265625 0.8647499999999999 Q 1.94852197265625 0.9629999999999999 1.84802197265625 1.0154999999999998 Q 1.74752197265625 1.0679999999999998 1.62152197265625 1.0679999999999998 Q 1.4955219726562499 1.0679999999999998 1.3957719726562499 1.0154999999999998 M 1.72427197265625 0.7672499999999999 Q 1.7655219726562499 0.7214999999999998 1.7655219726562499 0.6359999999999999 Q 1.7655219726562499 0.5504999999999999 1.72427197265625 0.5054999999999998 Q 1.6830219726562499 0.4604999999999999 1.62302197265625 0.4604999999999999 Q 1.56302197265625 0.4604999999999999 1.52252197265625 0.5054999999999998 Q 1.48202197265625 0.5504999999999999 1.48202197265625 0.6359999999999999 Q 1.48202197265625 0.7229999999999999 1.52102197265625 0.7679999999999999 Q 1.56002197265625 0.813 1.62152197265625 0.813 Q 1.6830219726562499 0.813 1.72427197265625 0.7672499999999999 M 2.6790014648437497 0.8069999999999999 L 2.6790014648437497 1.0574999999999999 L 2.5515014648437497 1.0574999999999999 Q 2.22900146484375 1.0574999999999999 2.22900146484375 0.7379999999999999 L 2.22900146484375 0.4604999999999999 L 2.12550146484375 0.4604999999999999 L 2.12550146484375 0.21599999999999986 L 2.22900146484375 0.21599999999999986 L 2.22900146484375 0.011999999999999789 L 2.52450146484375 0.011999999999999789 L 2.52450146484375 0.21599999999999986 L 2.6775014648437496 0.21599999999999986 L 2.6775014648437496 0.4604999999999999 L 2.52450146484375 0.4604999999999999 L 2.52450146484375 0.7424999999999999 Q 2.52450146484375 0.7769999999999999 2.5402514648437498 0.7919999999999998 Q 2.55600146484375 0.8069999999999999 2.59350146484375 0.8069999999999999 L 2.6790014648437497 0.8069999999999999 M 3.6120322265625 0.696 L 3.0555322265625 0.696 Q 3.0600322265625 0.7649999999999999 3.0937822265625 0.7987499999999998 Q 3.1275322265625 0.8324999999999999 3.1800322265625 0.8324999999999999 Q 3.2535322265624997 0.8324999999999999 3.2850322265624996 0.7665 L 3.5985322265625 0.7665 Q 3.5790322265625 0.8534999999999999 3.5227822265624997 0.9217499999999998 Q 3.4665322265625 0.9899999999999999 3.3810322265624997 1.029 Q 3.2955322265625 1.0679999999999998 3.1920322265624996 1.0679999999999998 Q 3.0675322265625 1.0679999999999998 2.9707822265624997 1.0154999999999998 Q 2.8740322265625 0.9629999999999999 2.8192822265624997 0.8654999999999999 Q 2.7645322265625 0.7679999999999999 2.7645322265625 0.6359999999999999 Q 2.7645322265625 0.5039999999999999 2.8185322265624997 0.4072499999999999 Q 2.8725322265625 0.3104999999999999 2.9692822265624996 0.2579999999999999 Q 3.0660322265624997 0.2054999999999999 3.1920322265624996 0.2054999999999999 Q 3.3165322265625 0.2054999999999999 3.4125322265625 0.25649999999999984 Q 3.5085322265625 0.3074999999999999 3.5625322265625 0.40274999999999983 Q 3.6165322265624997 0.4979999999999999 3.6165322265624997 0.6269999999999999 Q 3.6165322265624997 0.6614999999999999 3.6120322265625 0.696 M 3.3165322265625 0.5534999999999999 Q 3.3165322265625 0.49949999999999983 3.2805322265625 0.4687499999999999 Q 3.2445322265625 0.43799999999999983 3.1905322265625 0.43799999999999983 Q 3.1365322265624997 0.43799999999999983 3.1020322265624998 0.46724999999999983 Q 3.0675322265625 0.49649999999999983 3.0570322265625 0.5534999999999999 L 3.3165322265625 0.5534999999999999 M 3.890323974609375 1.02975 Q 3.8010739746093747 0.9914999999999998 3.749323974609375 0.9247499999999998 Q 3.6975739746093748 0.8579999999999999 3.691573974609375 0.7739999999999998 L 3.9765739746093747 0.7739999999999998 Q 3.982573974609375 0.8144999999999999 4.014073974609374 0.8369999999999999 Q 4.045573974609375 0.8594999999999999 4.092073974609375 0.8594999999999999 Q 4.128073974609375 0.8594999999999999 4.149073974609375 0.8444999999999999 Q 4.170073974609375 0.8294999999999999 4.170073974609375 0.8054999999999999 Q 4.170073974609375 0.7739999999999998 4.1355739746093745 0.7589999999999999 Q 4.101073974609375 0.7439999999999999 4.021573974609375 0.7259999999999999 Q 3.9315739746093747 0.7079999999999999 3.8715739746093747 0.6854999999999999 Q 3.8115739746093746 0.6629999999999998 3.7673239746093747 0.6119999999999999 Q 3.723073974609375 0.5609999999999999 3.723073974609375 0.47399999999999987 Q 3.723073974609375 0.3989999999999999 3.7635739746093746 0.33824999999999983 Q 3.804073974609375 0.27749999999999986 3.8828239746093747 0.24149999999999983 Q 3.961573974609375 0.2054999999999999 4.072573974609375 0.2054999999999999 Q 4.237573974609375 0.2054999999999999 4.332073974609375 0.28649999999999987 Q 4.426573974609375 0.3674999999999998 4.4415739746093745 0.49949999999999983 L 4.176073974609375 0.49949999999999983 Q 4.168573974609375 0.45899999999999985 4.140823974609375 0.4372499999999999 Q 4.1130739746093745 0.41549999999999987 4.0665739746093745 0.41549999999999987 Q 4.030573974609375 0.41549999999999987 4.011823974609375 0.4289999999999998 Q 3.993073974609375 0.4424999999999999 3.993073974609375 0.4664999999999999 Q 3.993073974609375 0.49649999999999983 4.027573974609375 0.5122499999999999 Q 4.062073974609374 0.5279999999999999 4.138573974609375 0.5444999999999999 Q 4.2300739746093745 0.5639999999999998 4.290823974609375 0.5879999999999999 Q 4.351573974609375 0.6119999999999999 4.397323974609375 0.6652499999999999 Q 4.443073974609375 0.7184999999999999 4.443073974609375 0.8099999999999998 Q 4.443073974609375 0.8834999999999998 4.400323974609375 0.9419999999999998 Q 4.357573974609375 1.0005 4.278823974609375 1.03425 Q 4.200073974609375 1.0679999999999998 4.093573974609375 1.0679999999999998 Q 3.979573974609375 1.0679999999999998 3.890323974609375 1.02975 M 5.121063720703125 1.0574999999999999 L 4.911063720703125 0.6674999999999999 L 4.879563720703125 0.6674999999999999 L 4.879563720703125 1.0574999999999999 L 4.585563720703124 1.0574999999999999 L 4.585563720703124 -2.220446049250313e-16 L 5.049063720703125 -2.220446049250313e-16 Q 5.1765637207031245 -2.220446049250313e-16 5.265063720703125 0.0442499999999999 Q 5.353563720703125 0.08849999999999991 5.398563720703125 0.16574999999999984 Q 5.443563720703125 0.24299999999999988 5.443563720703125 0.33899999999999986 Q 5.443563720703125 0.44699999999999984 5.384313720703124 0.5287499999999998 Q 5.325063720703125 0.6104999999999998 5.211063720703125 0.6449999999999998 L 5.449563720703125 1.0574999999999999 L 5.121063720703125 1.0574999999999999 M 4.879563720703125 0.4664999999999999 L 5.025063720703125 0.4664999999999999 Q 5.085063720703125 0.4664999999999999 5.115063720703125 0.43799999999999983 Q 5.145063720703124 0.40949999999999986 5.145063720703124 0.3554999999999998 Q 5.145063720703124 0.3044999999999999 5.114313720703125 0.2752499999999999 Q 5.083563720703125 0.24599999999999989 5.025063720703125 0.24599999999999989 L 4.879563720703125 0.24599999999999989 L 4.879563720703125 0.4664999999999999 M 6.100579833984375 1.0574999999999999 L 5.949079833984374 0.8459999999999999 L 5.829079833984375 1.0574999999999999 L 5.506579833984374 1.0574999999999999 L 5.787079833984374 0.6209999999999999 L 5.494579833984375 0.21599999999999986 L 5.824579833984375 0.21599999999999986 L 5.976079833984374 0.4274999999999999 L 6.0975798339843745 0.21599999999999986 L 6.420079833984374 0.21599999999999986 L 6.133579833984375 0.6449999999999998 L 6.430579833984375 1.0574999999999999 L 6.100579833984375 1.0574999999999999" fill="#ffffff" fill-rule="nonzero"></path></g><g></g></g><defs><clipPath id="SvgjsClipPath7119"><path d=" M -2.2770090879189024 -0.5803653569399353 h 1.8770090879189025 v 2.2182307138798705 h -1.8770090879189025 Z"></path></clipPath><clipPath id="SvgjsClipPath7117efd3767d-eed6-4e15-84c3-3c63bec85f05"><path d=" M -2.2770090879189024 -0.5803653569399353 L -0.3999999999999999 -0.5803653569399353 L -0.3999999999999999 1.637865356939935 L -2.2770090879189024 1.637865356939935 Z"></path></clipPath></defs></svg>